<?xml version="1.0" standalone="no"?>
<!DOCTYPE svg PUBLIC "-//W3C//DTD SVG 20010904//EN"
 "http://www.w3.org/TR/2001/REC-SVG-20010904/DTD/svg10.dtd">
<svg version="1.0" xmlns="http://www.w3.org/2000/svg"
 width="1280.000000pt" height="972.000000pt" viewBox="0 0 1280.000000 972.000000"
 preserveAspectRatio="xMidYMid meet">
<metadata>
Created by potrace 1.15, written by Peter Selinger 2001-2017
</metadata>
<g transform="translate(0.000000,972.000000) scale(0.100000,-0.100000)"
fill="#000000" stroke="none">
<path d="M9073 9700 c-56 -19 -86 -39 -170 -106 -57 -46 -115 -64 -211 -64
-68 0 -181 -16 -236 -32 -21 -7 -54 -26 -72 -44 -50 -46 -47 -93 12 -214 25
-52 52 -119 60 -150 16 -62 38 -85 95 -100 40 -11 63 -36 74 -80 3 -14 22 -45
41 -69 24 -32 34 -54 34 -80 0 -66 -60 -131 -122 -131 -34 0 -68 -27 -68 -55
0 -29 59 -92 94 -101 13 -3 47 2 77 10 94 28 150 16 169 -37 14 -42 13 -67
-10 -183 l-19 -102 62 -123 c38 -76 73 -131 90 -143 31 -23 81 -26 179 -12 79
12 104 3 128 -44 27 -53 26 -101 -3 -128 -37 -34 -90 -51 -230 -72 -162 -25
-284 -56 -636 -166 -172 -54 -283 -83 -297 -80 -74 19 -247 427 -219 516 10
31 40 43 59 24 13 -13 15 -30 10 -97 -9 -120 19 -179 79 -163 24 6 57 53 57
83 0 10 -16 56 -36 103 -19 47 -38 108 -41 136 -5 46 -3 53 14 58 25 8 52 -2
128 -48 33 -20 80 -43 105 -51 25 -8 79 -42 120 -76 83 -67 199 -148 245 -171
49 -25 95 -32 95 -15 0 20 -84 96 -127 114 -99 41 -242 213 -177 213 8 0 70
-29 137 -64 130 -68 190 -91 207 -81 22 14 -26 48 -161 115 -74 38 -150 80
-167 95 -37 31 -41 67 -13 104 22 29 49 26 163 -14 78 -28 122 -28 99 -1 -7 8
-66 38 -132 67 -147 64 -165 82 -174 176 -4 38 -18 112 -32 166 -14 53 -22
104 -19 112 3 8 46 35 96 60 49 25 90 50 90 55 0 13 7 14 -91 -15 -105 -31
-114 -31 -146 1 -32 32 -28 68 21 187 60 146 56 182 -7 79 -89 -144 -281 -361
-350 -395 -18 -9 -49 -19 -70 -22 -46 -7 -114 -66 -150 -128 -80 -137 -119
-342 -120 -617 0 -253 21 -396 89 -615 51 -164 173 -372 226 -386 37 -10 123
8 450 92 219 56 292 71 304 63 10 -5 25 -33 34 -60 23 -72 86 -153 295 -379
408 -441 448 -532 362 -815 -76 -248 -92 -392 -84 -769 8 -423 62 -777 173
-1136 56 -183 80 -280 109 -437 28 -154 48 -227 102 -383 63 -183 84 -292 90
-475 6 -192 -7 -272 -61 -386 -41 -86 -90 -138 -178 -187 -138 -77 -129 -155
25 -213 46 -18 86 -41 111 -66 37 -36 38 -40 34 -91 -3 -30 -22 -92 -46 -148
-23 -53 -42 -106 -42 -118 0 -24 52 -61 86 -61 28 0 70 -34 91 -73 13 -25 17
-57 17 -142 0 -119 -12 -172 -69 -305 -53 -124 -72 -186 -114 -380 -53 -245
-55 -261 -38 -284 13 -18 19 -19 55 -8 56 17 151 90 194 148 59 82 186 398
243 604 32 119 95 249 141 295 31 31 40 35 88 35 29 0 75 7 102 15 99 30 158
13 169 -49 9 -46 -13 -94 -94 -201 -37 -49 -93 -125 -124 -167 -31 -42 -93
-107 -139 -146 -96 -80 -168 -155 -168 -176 0 -45 94 -46 250 -3 110 31 163
58 226 117 82 77 126 76 139 -2 9 -56 18 -66 70 -73 66 -10 82 -2 87 50 3 24
19 70 36 102 44 86 47 116 22 227 -22 93 -22 98 -5 141 22 58 66 94 191 154
88 43 103 53 119 87 25 54 44 74 72 74 34 0 68 -25 109 -81 20 -27 46 -55 57
-61 65 -34 193 -26 281 18 27 14 83 56 123 95 42 40 82 69 94 69 11 0 39 -15
61 -34 21 -19 54 -37 71 -40 45 -8 223 19 253 39 35 23 42 49 36 141 -3 50 0
84 6 88 6 3 42 -1 82 -9 89 -19 134 -19 149 -1 6 8 17 42 23 77 12 70 32 96
121 157 128 87 109 271 -43 416 -55 53 -184 126 -222 126 -7 0 -37 14 -65 30
-69 40 -79 72 -35 111 40 36 85 49 208 58 55 5 110 13 122 20 56 30 65 87 32
223 -24 99 -26 246 -6 333 8 33 28 92 44 130 41 96 48 135 28 173 -26 50 -72
59 -205 37 -123 -20 -186 -15 -220 16 -30 28 -28 83 4 114 27 28 26 28 150 29
107 1 140 18 176 93 36 74 31 164 -15 283 -76 194 -98 266 -103 333 -6 68 -6
68 -32 62 -14 -4 -46 -20 -71 -38 -189 -129 -269 -179 -335 -206 -89 -37 -162
-49 -195 -31 -20 11 -22 17 -17 62 10 82 23 94 109 100 83 5 127 24 158 69 31
43 73 170 61 182 -6 6 -70 13 -144 17 -115 6 -142 11 -195 35 -118 53 -189
155 -247 356 -15 52 -44 135 -65 184 -57 136 -60 164 -19 185 15 8 26 3 58
-25 44 -40 119 -146 175 -249 43 -76 101 -138 160 -168 21 -11 81 -26 133 -34
117 -18 262 -64 315 -100 39 -27 41 -28 54 -9 8 10 14 38 14 62 0 56 19 110
97 276 71 150 85 204 59 227 -11 9 -73 17 -181 26 -214 16 -262 30 -314 92
-182 215 -208 254 -196 293 15 45 85 37 234 -28 138 -60 199 -66 276 -28 67
32 115 92 145 180 23 67 47 232 35 243 -4 4 -10 2 -12 -5 -40 -111 -232 -125
-395 -29 -24 14 -67 46 -97 71 -80 68 -105 79 -186 78 -51 -1 -106 -12 -203
-42 -145 -44 -190 -49 -245 -26 -20 8 -53 15 -73 15 -31 0 -45 -8 -92 -55 -31
-30 -61 -55 -67 -55 -19 0 -165 98 -171 115 -4 10 11 34 39 64 33 35 50 65 63
107 9 33 34 85 54 117 48 72 58 134 36 229 -19 84 -78 202 -145 290 -90 121
-368 442 -417 483 -249 206 -454 305 -664 320 -52 3 -113 11 -134 18 -54 15
-102 63 -116 117 -11 39 -9 105 4 117 2 2 67 -9 144 -26 141 -30 178 -45 263
-105 36 -25 69 -37 138 -51 84 -16 95 -16 162 -1 98 22 101 21 156 -26 52 -45
107 -73 166 -83 50 -10 64 -34 70 -123 8 -132 70 -186 276 -242 63 -17 126
-40 142 -51 35 -25 49 -68 58 -177 5 -56 15 -101 29 -127 28 -55 101 -121 170
-153 48 -22 71 -27 147 -27 76 0 98 4 140 25 81 41 68 54 -55 54 -90 1 -110 4
-140 23 -86 53 -95 123 -45 333 62 259 40 304 -167 345 -96 19 -157 49 -175
85 -8 15 -13 64 -13 120 0 134 -30 179 -130 195 -57 9 -110 36 -180 91 -115
90 -208 110 -353 75 -49 -12 -99 -21 -112 -21 -36 0 -55 26 -55 74 0 23 -5 47
-12 54 -8 8 -59 12 -162 12 -155 0 -214 9 -236 35 -8 10 -12 40 -11 76 2 78
-29 148 -92 208 -26 25 -47 53 -47 62 0 9 25 47 56 84 67 82 92 130 132 256
17 53 47 134 67 180 20 46 38 104 41 129 5 39 3 48 -20 69 -24 22 -30 23 -118
18 -51 -3 -124 -14 -163 -25 -222 -62 -243 -66 -271 -57 -19 7 -48 43 -100
127 -146 230 -281 306 -441 248z m200 -45 c-1 -5 -25 -16 -55 -22 -101 -24
-156 -43 -182 -64 -26 -20 -26 -22 -10 -40 17 -18 16 -21 -9 -47 -15 -16 -27
-34 -27 -41 0 -17 26 -12 144 23 86 25 196 35 196 17 0 -14 -29 -22 -120 -32
-90 -10 -106 -18 -187 -86 -61 -52 -91 -54 -106 -8 -19 55 23 195 70 237 22
20 79 45 143 64 51 14 146 14 143 -1z m-463 -220 c0 -40 -12 -46 -27 -12 -12
27 -7 47 13 47 9 0 14 -11 14 -35z m-99 -7 c38 -59 -51 -172 -98 -125 -22 21
-10 45 24 49 20 2 28 9 28 23 0 18 -7 20 -56 21 -56 0 -79 8 -79 24 0 29 164
36 181 8z m101 -97 c-7 -86 -96 -179 -131 -137 -16 19 3 56 65 125 51 57 70
61 66 12z m-346 -6 c18 -45 18 -69 -2 -86 -32 -27 -68 52 -48 105 10 27 34 18
50 -19z m1617 -59 c-2 -60 -42 -184 -99 -305 -45 -95 -161 -281 -176 -281 -4
0 32 80 80 178 110 219 141 297 153 380 10 72 16 85 32 79 7 -2 11 -23 10 -51z
m-108 -10 c9 -44 -18 -139 -67 -243 -65 -134 -110 -156 -66 -30 89 249 112
307 119 307 4 0 11 -15 14 -34z m-1367 12 c27 -27 8 -88 -27 -88 -23 0 -51 31
-51 56 0 36 52 58 78 32z m1258 -41 c-9 -57 -40 -143 -103 -292 -66 -156 -92
-205 -110 -205 -20 0 -16 14 37 135 62 140 116 279 125 325 18 86 64 120 51
37z m-116 -28 c0 -52 -65 -217 -126 -319 -54 -91 -72 -115 -80 -107 -10 10 16
76 81 208 58 114 70 147 89 232 10 44 36 34 36 -14z m-100 2 c0 -37 -154 -366
-195 -416 -16 -20 -16 -19 -9 5 3 14 27 72 51 130 25 58 58 143 74 189 29 84
54 125 70 115 5 -3 9 -13 9 -23z m-756 -14 c17 -13 16 -16 -22 -56 -48 -50
-75 -52 -80 -5 -2 25 3 37 24 53 31 24 53 26 78 8z m616 -33 c0 -14 -22 -78
-49 -143 -27 -64 -55 -136 -62 -161 -13 -48 -26 -70 -40 -70 -18 0 -8 45 42
200 47 145 74 200 99 200 6 0 10 -12 10 -26z m-135 -58 c-23 -143 -88 -346
-111 -346 -8 0 -14 5 -14 10 0 23 93 366 102 377 18 23 30 2 23 -41z m-705 14
c29 -29 27 -86 -2 -93 -33 -9 -70 2 -100 31 -49 45 -31 82 39 82 30 0 49 -6
63 -20z m589 -75 c-17 -105 -82 -305 -100 -305 -16 0 -10 37 20 112 16 40 34
109 41 153 7 44 17 88 22 99 18 33 26 2 17 -59z m-339 0 c11 -13 8 -17 -19
-26 -22 -8 -38 -24 -53 -53 -19 -36 -22 -39 -29 -21 -14 36 -9 68 13 92 25 26
69 30 88 8z m228 -72 c-5 -51 -69 -215 -76 -195 -5 17 36 213 49 229 22 26 32
13 27 -34z m-403 -38 c30 -30 31 -42 4 -50 -49 -16 -97 26 -69 60 18 21 37 18
65 -10z m272 -87 c-7 -76 -27 -140 -46 -146 -10 -4 -12 6 -6 49 17 137 64 224
52 97z m-107 -62 c0 -39 -18 -96 -31 -96 -13 0 -11 104 3 118 20 20 28 14 28
-22z m-684 -28 c8 -12 -21 -38 -43 -38 -13 0 -18 32 -6 43 10 11 41 8 49 -5z
m564 -67 c0 -22 -15 -35 -30 -26 -7 4 -7 13 0 26 14 25 30 25 30 0z m-541 -20
c21 -21 70 -143 97 -240 13 -47 15 -64 6 -73 -18 -18 -30 0 -47 65 -8 32 -36
98 -61 146 -43 83 -51 121 -24 121 5 0 18 -8 29 -19z m-114 -357 c0 -37 -4
-49 -15 -49 -16 0 -27 63 -16 92 12 31 31 6 31 -43z m-65 15 c0 -10 -4 -19
-10 -19 -5 0 -10 12 -10 26 0 14 4 23 10 19 6 -3 10 -15 10 -26z m175 -76 c3
-23 4 -51 0 -63 -13 -40 -25 -8 -25 63 1 76 12 76 25 0z m-204 16 c7 -14 8
-24 1 -31 -17 -17 -42 -1 -42 27 0 31 25 34 41 4z m316 -77 c-4 -52 -19 -83
-34 -68 -11 10 -10 116 0 141 l8 20 16 -20 c10 -14 13 -36 10 -73z m-229 -4
c18 -18 15 -28 -8 -28 -13 0 -20 7 -20 20 0 23 10 26 28 8z m-253 -27 c9 -30
-20 -91 -44 -91 -43 0 -12 109 31 110 4 0 9 -9 13 -19z m1533 -719 c3 -24 -8
-51 -41 -105 -24 -41 -63 -116 -86 -167 -23 -52 -49 -102 -58 -112 -55 -61
-153 40 -153 155 0 67 38 146 91 189 54 44 146 78 199 76 43 -3 45 -5 48 -36z
m1064 -368 c41 -21 167 -125 230 -190 80 -84 136 -168 143 -218 12 -80 -28
-224 -88 -313 -85 -126 -257 -129 -381 -6 -90 89 -109 203 -57 335 39 100 42
115 50 260 10 164 19 175 103 132z m407 -758 c55 -59 63 -81 31 -91 -28 -9
-25 -24 13 -57 l32 -28 -30 7 c-51 12 -79 9 -83 -9 -2 -10 5 -19 17 -23 12 -3
21 -13 21 -22 0 -13 -8 -14 -46 -8 l-46 7 7 -31 c6 -27 3 -32 -19 -41 -19 -7
-26 -17 -26 -37 0 -21 -8 -33 -30 -45 -43 -24 -64 -79 -66 -166 -1 -41 -7 -79
-13 -85 -20 -20 -64 5 -85 47 -16 34 -18 46 -8 95 15 83 46 158 103 252 28 46
69 125 91 174 62 139 63 139 137 61z m1037 -251 c4 -8 3 -23 0 -32 -6 -15 -8
-15 -23 -1 -16 17 -12 48 7 48 6 0 13 -7 16 -15z m-231 -29 c14 6 16 1 13 -26
-2 -19 -9 -35 -15 -38 -16 -5 -73 51 -73 72 0 15 3 15 29 1 17 -8 37 -12 46
-9z m-10 -136 c0 -22 -29 -18 -33 3 -3 14 1 18 15 15 10 -2 18 -10 18 -18z
m-95 -51 c0 -10 -4 -19 -9 -19 -14 0 -33 28 -27 39 10 16 36 1 36 -20z m201
-5 c17 -8 28 -21 26 -27 -7 -22 -96 4 -105 31 -5 17 42 15 79 -4z m-93 -86
c17 -17 15 -28 -7 -28 -19 0 -35 23 -24 34 9 9 18 7 31 -6z m-40 -76 c2 -12
-1 -22 -7 -22 -13 0 -32 35 -24 44 12 12 28 0 31 -22z m-192 -87 c10 -25 -7
-40 -23 -20 -7 11 -13 22 -13 27 0 14 30 9 36 -7z m524 -92 c0 -5 -5 -15 -10
-23 -7 -11 -12 -12 -21 -3 -6 6 -8 16 -5 22 8 12 36 15 36 4z m76 -147 c13
-52 -13 -82 -30 -34 -10 28 -3 58 13 58 6 0 13 -11 17 -24z"/>
<path d="M7202 8001 c-167 -113 -350 -249 -374 -278 -17 -22 -18 -23 157 93
145 95 378 264 389 283 16 25 -19 5 -172 -98z"/>
<path d="M6545 7546 c-11 -7 -67 -44 -125 -81 -121 -78 -115 -73 -107 -81 12
-12 219 111 282 167 15 14 -28 9 -50 -5z"/>
<path d="M6206 7327 c-30 -30 -27 -54 5 -36 22 12 33 32 27 51 -3 8 -14 3 -32
-15z"/>
<path d="M651 7328 c-78 -11 -191 -62 -250 -114 -56 -49 -115 -140 -138 -212
-13 -44 -17 -94 -18 -212 l0 -155 -46 -75 c-61 -101 -78 -147 -85 -233 -8 -80
-19 -110 -59 -147 -61 -57 -70 -116 -29 -198 52 -104 138 -154 287 -168 80 -7
107 -26 107 -77 0 -18 -9 -98 -21 -177 -27 -191 -22 -288 36 -600 84 -456 98
-573 99 -795 1 -183 -1 -206 -22 -274 -13 -41 -45 -113 -71 -160 -68 -121 -86
-179 -85 -281 1 -122 32 -215 128 -389 57 -103 89 -191 126 -346 46 -186 101
-340 199 -548 69 -145 78 -185 57 -240 -9 -23 -46 -76 -82 -117 -163 -184
-223 -298 -260 -495 -43 -225 -104 -375 -238 -574 -126 -188 -124 -218 16
-301 32 -19 89 -66 127 -105 79 -80 149 -126 248 -160 80 -29 105 -30 138 -9
51 34 44 57 -41 124 -77 60 -126 132 -160 231 -39 113 -41 169 -10 262 39 115
104 238 198 372 95 136 167 251 195 310 14 31 24 41 46 43 16 2 35 -2 43 -9
21 -17 65 -106 114 -230 66 -163 97 -211 299 -448 128 -151 220 -286 245 -358
10 -26 21 -101 26 -166 9 -111 24 -166 51 -183 6 -4 68 -12 138 -19 94 -10
153 -22 234 -49 173 -59 317 -60 317 -3 0 36 -27 65 -88 96 -99 51 -153 96
-323 275 -184 194 -236 263 -271 363 -20 60 -23 86 -22 218 0 135 5 179 53
445 57 322 84 452 160 785 28 121 79 375 115 565 36 190 92 482 125 650 33
168 90 465 126 660 84 451 90 478 111 457 12 -12 42 -185 63 -367 179 -1508
247 -2025 272 -2072 14 -26 57 -34 77 -14 13 13 17 33 15 84 -4 138 -185 1762
-229 2055 -9 59 -14 110 -11 113 19 19 101 -226 180 -536 30 -118 77 -298 105
-400 28 -102 72 -291 97 -420 56 -286 176 -763 209 -836 16 -35 31 -54 43 -55
104 -7 108 32 28 297 -101 339 -146 537 -211 934 -25 151 -52 302 -60 334 -9
33 -22 103 -30 156 -17 115 -90 426 -144 616 -42 147 -48 188 -27 201 6 4 140
10 297 13 251 4 289 7 322 23 48 24 396 303 421 338 17 24 19 48 21 235 3 234
15 294 67 347 40 39 76 32 140 -28 56 -52 82 -56 121 -18 l27 26 48 -18 c26
-10 120 -54 208 -97 240 -118 240 -102 0 30 -221 121 -269 180 -183 224 72 37
365 68 652 68 183 0 433 16 616 40 239 31 431 48 730 65 151 8 329 20 395 25
66 6 314 19 550 30 237 11 576 28 755 39 179 11 462 25 630 31 325 13 557 32
587 48 16 10 15 12 -10 21 -35 14 -135 14 -342 1 -88 -5 -351 -19 -585 -30
-234 -11 -492 -25 -575 -30 -82 -6 -305 -19 -495 -30 -190 -11 -419 -26 -510
-35 -91 -8 -266 -21 -390 -30 -1199 -80 -1531 -106 -1874 -146 -123 -14 -182
-17 -189 -10 -25 25 40 60 245 134 202 73 1088 407 1141 429 49 21 61 38 27
38 -47 0 -328 -101 -900 -323 -162 -62 -329 -126 -370 -140 -90 -31 -160 -44
-160 -29 0 22 113 108 359 275 139 95 308 213 375 262 66 50 186 136 266 192
205 143 310 233 273 233 -40 0 -658 -421 -982 -669 -199 -152 -270 -201 -294
-201 -10 0 -29 7 -42 16 -35 23 -70 11 -127 -42 -60 -56 -108 -61 -152 -15
-43 44 -56 119 -56 316 0 94 -4 197 -10 230 -14 85 -28 95 -147 95 -110 0
-127 -7 -198 -79 -27 -28 -58 -51 -70 -51 -12 0 -41 23 -71 55 -71 77 -115 73
-145 -13 -6 -18 -20 -37 -31 -43 -17 -9 -28 -2 -78 50 -32 34 -65 61 -73 61
-16 0 -67 -54 -67 -71 0 -17 -40 -49 -54 -43 -8 3 -29 27 -46 53 -32 51 -70
75 -102 66 -10 -4 -30 -24 -43 -45 -35 -55 -56 -65 -89 -39 -15 12 -33 36 -41
55 -8 19 -20 34 -27 34 -8 0 -40 -27 -73 -60 -33 -33 -67 -60 -76 -60 -9 0
-33 20 -53 45 -54 66 -68 71 -122 43 -39 -19 -47 -20 -54 -8 -6 8 -10 74 -10
145 0 225 -8 238 -136 239 l-73 1 -83 -81 c-46 -44 -109 -102 -140 -128 -99
-83 -100 -88 -110 -456 -11 -450 -13 -474 -48 -504 -47 -39 -157 -61 -300 -60
-134 2 -194 16 -237 56 -25 24 -30 60 -10 76 6 5 41 9 77 9 96 -2 153 18 215
75 67 61 99 111 91 141 -3 14 4 35 21 60 22 32 24 41 15 63 -18 38 -15 61 9
67 19 5 21 11 16 43 -3 20 -24 64 -47 97 l-40 60 1 96 c1 113 11 197 27 213 8
8 23 1 55 -26 24 -20 54 -36 65 -36 28 0 38 40 23 90 -13 44 -97 165 -156 225
-43 43 -175 117 -248 139 -24 7 -69 32 -100 55 -73 53 -141 93 -197 114 -40
15 -169 38 -195 36 -5 -1 -39 -6 -74 -11z m520 -209 c27 -12 49 -28 49 -35 0
-21 -29 -36 -260 -134 -233 -99 -325 -148 -524 -276 -71 -46 -133 -84 -138
-84 -5 0 -11 7 -15 16 -9 23 32 60 133 119 109 65 175 115 274 211 52 50 88
75 115 83 22 6 67 27 100 47 131 80 180 90 266 53z m909 -307 c0 -24 -74 -79
-177 -131 -108 -55 -107 -33 1 44 62 44 152 95 167 95 5 0 9 -4 9 -8z m1680
-290 c0 -21 -249 -172 -283 -172 -32 0 -6 22 111 94 129 78 172 98 172 78z
m-1556 -407 c9 -234 1 -423 -19 -428 -5 -1 -16 16 -24 38 -20 57 -22 589 -3
624 29 49 37 7 46 -234z m327 67 c8 -109 6 -203 -8 -262 -13 -60 -22 23 -22
215 0 225 14 248 30 47z m294 -104 c0 -153 -3 -220 -12 -229 -9 -9 -13 -3 -20
27 -10 51 -10 413 0 439 l8 20 12 -20 c8 -14 12 -88 12 -237z m265 6 c11 -216
12 -809 1 -838 -4 -11 -10 -15 -13 -10 -10 16 -30 874 -23 973 10 139 23 95
35 -125z m329 -279 c6 -143 14 -390 17 -550 6 -253 5 -295 -9 -328 -19 -45
-54 -62 -147 -71 -99 -10 -940 -36 -1150 -36 -183 0 -230 4 -230 21 0 28 61
31 757 39 646 7 717 9 731 24 19 19 19 177 4 989 -10 560 2 520 27 -88z m-89
202 c15 -242 22 -767 10 -707 -17 86 -31 327 -35 635 -5 342 6 375 25 72z
m740 -166 c19 -5 26 -14 28 -39 3 -30 0 -34 -50 -57 -74 -35 -159 -35 -193 0
-14 13 -25 29 -25 35 0 21 21 51 43 60 26 10 161 11 197 1z m-1244 -273 c4
-26 3 -109 -2 -185 -6 -112 -9 -129 -15 -93 -12 72 -23 306 -15 326 10 27 25
5 32 -48z m-283 -145 c15 -151 3 -296 -17 -220 -9 34 -7 287 3 287 4 0 11 -30
14 -67z m-290 -24 c5 -24 6 -91 4 -149 -3 -58 -2 -116 2 -130 11 -39 45 -37
106 6 60 41 51 42 129 -20 51 -40 76 -37 137 18 28 25 55 46 59 46 4 0 30 -20
58 -45 27 -25 59 -45 70 -45 11 0 44 19 72 43 96 77 85 75 131 23 54 -61 75
-60 143 4 29 28 58 50 63 50 13 0 96 -88 113 -119 25 -48 -11 -55 -375 -72
-235 -11 -635 -7 -698 7 -15 4 -33 16 -40 28 -13 24 -23 315 -12 372 8 47 28
39 38 -17z m-503 -487 c60 -156 90 -228 103 -246 7 -10 45 -22 96 -30 64 -11
91 -21 109 -40 24 -23 25 -29 24 -148 -2 -211 -25 -491 -77 -928 -18 -157 -39
-341 -45 -410 -21 -231 -72 -606 -136 -995 -26 -161 -54 -376 -79 -596 -17
-156 -20 -169 -46 -169 -53 0 -145 237 -179 460 -16 110 -28 161 -67 299 -41
144 -43 128 36 386 88 286 86 269 83 624 -1 183 2 338 8 371 6 32 33 129 60
216 58 182 73 243 94 375 37 236 29 485 -24 749 -50 243 -34 275 40 82z"/>
<path d="M905 7030 c-21 -17 -65 -40 -97 -51 -87 -32 -125 -85 -41 -59 44 14
160 75 186 98 20 18 23 42 5 42 -7 0 -31 -14 -53 -30z"/>
<path d="M6048 7211 c-119 -97 -143 -119 -137 -125 9 -9 95 49 150 101 46 43
77 83 65 83 -3 0 -38 -27 -78 -59z"/>
<path d="M7435 6991 c-77 -27 -210 -75 -295 -108 -85 -33 -256 -95 -380 -138
-124 -43 -236 -84 -250 -92 -25 -14 -25 -14 10 -8 47 7 497 153 685 222 170
62 360 140 390 160 19 13 19 13 0 12 -11 0 -83 -22 -160 -48z"/>
<path d="M4525 5628 c21 -13 185 -27 185 -17 0 10 -108 29 -159 29 -40 -1 -43
-2 -26 -12z"/>
<path d="M4830 5579 c14 -6 188 -51 388 -100 348 -86 447 -104 357 -64 -82 36
-676 176 -743 174 l-27 0 25 -10z"/>
<path d="M4300 5486 c0 -9 14 -25 31 -34 30 -16 81 -53 293 -214 50 -37 92
-65 95 -63 2 3 -23 34 -57 69 -56 58 -74 86 -56 86 4 0 31 -14 60 -31 82 -46
89 -28 9 23 -204 133 -375 207 -375 164z"/>
<path d="M5907 5329 c15 -15 93 -24 93 -11 0 12 -34 22 -74 22 -22 0 -27 -3
-19 -11z"/>
<path d="M6121 5276 c11 -11 303 -88 514 -136 126 -29 381 -95 565 -147 651
-183 845 -225 845 -184 0 10 -24 20 -75 31 -41 10 -181 45 -310 78 -291 76
-1084 269 -1322 323 -161 36 -229 46 -217 35z"/>
<path d="M4820 5220 c0 -10 74 -63 103 -73 12 -4 17 -3 15 4 -5 15 -118 81
-118 69z"/>
<path d="M4760 5162 c0 -12 102 -110 170 -164 92 -73 225 -167 229 -162 7 6
-114 113 -179 159 -31 22 -87 67 -124 100 -73 65 -96 81 -96 67z"/>
<path d="M5200 5131 c0 -18 152 -105 173 -98 14 4 -82 70 -135 92 -21 8 -38
11 -38 6z"/>
<path d="M5206 4952 c59 -51 597 -413 603 -406 6 6 3 8 -254 188 -206 144
-333 226 -351 226 -4 0 -4 -4 2 -8z"/>
<path d="M5264 4752 c70 -64 86 -73 86 -47 0 13 -99 88 -137 102 -10 4 13 -21
51 -55z"/>
<path d="M8070 4781 c0 -16 63 -34 280 -81 185 -39 366 -70 413 -70 27 0 107
-13 179 -30 136 -32 168 -36 168 -21 0 27 -166 68 -505 127 -115 19 -263 47
-329 60 -121 25 -206 31 -206 15z"/>
<path d="M5540 4526 c8 -8 164 -133 346 -279 302 -241 367 -288 380 -274 14
13 -701 567 -732 567 -5 0 -2 -6 6 -14z"/>
<path d="M6357 4521 c13 -10 107 -65 210 -122 104 -56 225 -124 270 -150 45
-27 115 -62 155 -79 72 -31 168 -81 723 -377 455 -244 574 -303 603 -303 l27
1 -27 23 c-39 35 -243 147 -673 371 -209 109 -429 226 -490 260 -60 35 -159
84 -219 110 -59 25 -208 96 -329 156 -121 61 -232 115 -246 120 l-26 9 22 -19z"/>
<path d="M5840 4516 c0 -10 9 -16 21 -16 24 0 21 23 -4 28 -10 2 -17 -3 -17
-12z"/>
<path d="M5945 4451 c25 -42 867 -613 925 -628 61 -16 -14 41 -337 254 -197
130 -380 253 -408 274 -45 34 -170 109 -182 109 -2 0 -2 -4 2 -9z"/>
<path d="M7450 3466 c0 -16 207 -148 560 -357 118 -71 249 -152 290 -182 92
-67 131 -87 167 -87 24 0 25 2 13 14 -8 8 -105 70 -215 138 -110 69 -298 186
-417 261 -329 207 -398 243 -398 213z"/>
<path d="M8532 3370 c5 -17 -24 -2 384 -203 252 -125 377 -193 445 -242 101
-72 135 -92 145 -82 16 15 -14 42 -143 128 -139 93 -380 219 -639 335 -158 71
-199 84 -192 64z"/>
<path d="M6990 3305 c87 -91 323 -278 485 -384 103 -67 147 -86 94 -41 -125
107 -543 426 -589 450 -21 11 -20 7 10 -25z"/>
<path d="M8740 2634 c0 -26 255 -188 359 -229 35 -13 85 -38 112 -56 27 -17
67 -33 89 -36 35 -5 40 -3 40 15 0 16 -9 22 -40 27 -22 4 -67 25 -101 47 -35
22 -74 44 -88 50 -14 5 -87 42 -161 83 -140 77 -210 110 -210 99z"/>
</g>
</svg>
